<svg width="706" height="181" viewBox="0 0 706 181" fill="none" xmlns="http://www.w3.org/2000/svg">
<path d="M202.376 74.312H214.76L215.24 81.992C217.736 76.616 222.152 73.64 228.104 73.64C228.968 73.64 229.928 73.736 230.792 73.832C231.656 74.024 232.52 74.216 233.192 74.504L231.752 87.752C230.312 87.08 228.872 87.08 227.336 87.08C219.176 87.08 215.816 92.552 215.816 100.136V125H202.376V74.312Z" fill="#E0565B"/>
<path d="M237.3 99.656C237.3 84.584 248.628 72.872 263.988 72.872C279.06 72.872 290.292 84.2 290.292 99.56C290.292 114.728 279.156 126.44 263.604 126.44C248.532 126.44 237.3 114.92 237.3 99.656ZM263.796 84.968C255.828 84.968 251.028 92.072 251.028 99.656C251.028 107.048 255.732 114.344 263.796 114.344C271.764 114.344 276.564 107.24 276.564 99.656C276.564 92.168 271.956 84.968 263.796 84.968Z" fill="#E0565B"/>
<path d="M297.675 99.656C297.675 84.584 309.003 72.872 324.363 72.872C339.435 72.872 350.667 84.2 350.667 99.56C350.667 114.728 339.531 126.44 323.979 126.44C308.907 126.44 297.675 114.92 297.675 99.656ZM324.171 84.968C316.203 84.968 311.403 92.072 311.403 99.656C311.403 107.048 316.107 114.344 324.171 114.344C332.139 114.344 336.939 107.24 336.939 99.656C336.939 92.168 332.331 84.968 324.171 84.968Z" fill="#E0565B"/>
<path d="M359.501 74.312H371.885L372.269 80.744C375.341 75.56 380.717 72.872 386.669 72.872C393.293 72.872 399.053 76.232 401.933 82.28C405.293 76.136 411.725 72.872 418.637 72.872C431.213 72.872 437.069 82.664 437.069 94.568V125H423.629V96.296C423.629 90.632 421.421 84.968 414.893 84.968C408.653 84.968 405.005 89.864 405.005 95.912V125H391.565V96.296C391.565 90.632 389.357 84.968 382.829 84.968C376.589 84.968 372.941 89.864 372.941 95.912V125H359.501V74.312Z" fill="#E0565B"/>
<path d="M447.814 74.312H460.198L460.677 81.992C463.173 76.616 467.59 73.64 473.542 73.64C474.406 73.64 475.365 73.736 476.229 73.832C477.094 74.024 477.957 74.216 478.629 74.504L477.19 87.752C475.75 87.08 474.31 87.08 472.773 87.08C464.613 87.08 461.254 92.552 461.254 100.136V125H447.814V74.312Z" fill="#E0565B"/>
<path d="M482.737 99.56C482.737 85.16 492.817 72.872 507.985 72.872C523.441 72.872 532.753 84.296 532.753 99.656V103.016H496.369C497.425 109.736 501.457 115.112 508.753 115.112C513.553 115.112 517.201 112.808 519.697 108.776L531.697 112.616C528.049 121.736 518.161 126.44 508.657 126.44C493.393 126.44 482.737 114.92 482.737 99.56ZM507.985 83.24C501.553 83.24 497.713 88.04 496.561 93.992H518.929C518.065 88.04 514.417 83.24 507.985 83.24Z" fill="#E0565B"/>
<path d="M541.095 74.312H553.479L553.863 80.84C557.031 75.464 562.695 72.872 568.839 72.872C581.319 72.872 587.367 82.76 587.367 94.568V125H573.927V96.296C573.927 90.44 571.527 84.968 564.903 84.968C558.663 84.968 554.535 89.672 554.535 95.912V125H541.095V74.312Z" fill="#E0565B"/>
<path d="M593.041 74.312H601.68V57.032H615.12V74.312H628.945V85.16H615.12V107.144C615.12 111.368 616.656 114.728 621.36 114.728C623.856 114.728 626.16 113.96 628.464 113L630.865 123.08C627.216 125.384 622.896 126.44 618.672 126.44C607.92 126.44 601.68 119.72 601.68 108.776V85.16H593.041V74.312Z" fill="#E0565B"/>
<path d="M654.055 126.44C644.839 126.44 636.007 120.68 636.007 110.6C636.007 99.272 646.759 94.376 656.839 94.376C661.063 94.376 664.423 95.144 668.359 96.584V93.608C668.359 87.944 665.095 83.912 659.239 83.912C655.111 83.912 651.271 85.928 649.831 89.96L637.831 87.56C640.039 77.864 650.119 72.872 659.431 72.872C672.103 72.872 681.415 81.032 681.415 94.28V125H669.415L669.031 119.048C665.959 124.136 659.815 126.44 654.055 126.44ZM649.255 109.928C649.255 114.248 653.575 116.072 657.319 116.072C663.175 116.072 668.359 112.04 668.359 105.8V105.32C666.919 104.744 665.479 104.264 663.847 103.88C662.215 103.592 660.679 103.4 659.047 103.4C654.919 103.4 649.255 104.84 649.255 109.928Z" fill="#E0565B"/>
<path d="M692.126 125V53.384H705.566V125H692.126Z" fill="#E0565B"/>
<path d="M157.147 146.591C155.874 156.016 149.5 164.167 140.581 167.79C136.21 169.598 131.474 170.147 126.739 169.598C122.19 169.057 117.632 167.604 112.905 164.893C106.353 161.261 99.7928 155.653 92.1461 147.317C104.164 132.638 111.445 119.234 114.178 107.274C115.451 101.657 115.638 96.5812 115.086 91.8683C114.356 87.3412 112.718 83.1688 110.172 79.5454C104.528 71.3949 95.0571 66.682 84.4995 66.682C73.9418 66.682 64.4705 71.5723 58.8267 79.5454C56.2806 83.1688 54.6427 87.3412 53.9128 91.8683C53.1829 96.5812 53.3696 101.835 54.8209 107.274C57.5536 119.234 65.0136 132.823 76.8528 147.494C69.3844 155.831 62.6543 161.447 56.0939 165.071C51.3582 167.79 46.8093 169.243 42.2603 169.784C37.5671 170.307 32.8229 169.682 28.4267 167.976C19.507 164.353 13.1334 156.194 11.8603 146.776C11.3172 142.249 11.6821 137.722 13.4983 132.646C14.0415 130.83 14.958 129.023 15.8661 126.852C17.1392 123.955 18.5989 120.872 20.0502 117.789L20.2369 117.426C32.7974 90.424 46.2746 62.8812 60.2949 36.0649L60.8381 34.9753C62.2978 32.2641 63.7491 29.3587 65.2088 26.639C66.6685 23.742 68.3065 21.0224 70.3094 18.6659C74.137 14.3161 79.2291 11.9597 84.8729 11.9597C90.5167 11.9597 95.6173 14.3161 99.4364 18.6659C101.439 21.0224 103.077 23.742 104.537 26.639C105.997 29.3587 107.448 32.2557 108.908 34.9669L109.459 36.0564C123.293 63.0502 136.77 90.5929 149.331 117.595V117.772C150.79 120.669 152.063 123.938 153.515 126.835C154.423 129.014 155.339 130.822 155.883 132.629C157.334 137.351 157.877 141.878 157.147 146.591ZM84.4995 138.068C74.6717 125.746 68.298 114.149 66.1084 104.368C65.2003 100.196 65.0136 96.5727 65.5653 93.3126C65.9302 90.4155 67.025 87.8733 68.4763 85.7026C71.9389 80.8123 77.7609 77.7295 84.4995 77.7295C91.238 77.7295 97.2468 80.6349 100.523 85.7026C101.982 87.8817 103.069 90.4155 103.434 93.3126C103.977 96.5727 103.799 100.382 102.891 104.368C100.709 113.972 94.3358 125.568 84.4995 138.068ZM166.618 128.651C165.71 126.48 164.794 124.124 163.886 122.131C162.426 118.87 160.975 115.788 159.693 112.891L159.515 112.713C146.954 85.5337 133.477 57.9909 119.279 30.8114L118.736 29.7218C117.276 27.0022 115.825 24.1052 114.365 21.2082C112.54 17.948 110.724 14.502 107.813 11.2418C101.982 3.98656 93.6059 0 84.6862 0C75.5798 0 67.3899 3.98656 61.3727 10.8701C58.64 14.1303 56.6371 17.5763 54.8209 20.8365C53.3611 23.7335 51.9099 26.6306 50.4501 29.3502L49.907 30.4313C35.8867 57.6109 22.2313 85.1536 9.67072 112.333L9.49249 112.696C8.21946 115.593 6.75972 118.676 5.29997 121.936C4.32398 124.082 3.41589 126.261 2.5672 128.457C0.199365 135.163 -0.530506 141.506 0.377589 148.026C2.38049 161.616 11.4869 173.035 24.0475 178.103C28.7832 180.096 33.6971 181 38.7977 181C40.2574 181 42.0736 180.823 43.5333 180.637C49.542 179.91 55.729 177.926 61.7377 174.48C69.2061 170.316 76.3011 164.336 84.3128 155.636C92.3244 164.336 99.6061 170.316 106.888 174.48C112.897 177.926 119.083 179.91 125.092 180.637C126.552 180.823 128.368 181 129.828 181C134.928 181 140.021 180.096 144.578 178.103C157.325 173.027 166.245 161.43 168.248 148.026C169.708 141.692 168.978 135.357 166.618 128.651Z" fill="#E0565B"/>
</svg>
